<mxfile host="Electron" modified="2023-09-17T21:04:35.949Z" agent="Mozilla/5.0 (X11; Linux x86_64) AppleWebKit/537.36 (KHTML, like Gecko) draw.io/21.3.7 Chrome/112.0.5615.204 Electron/24.5.0 Safari/537.36" etag="bz83vw4pk9nOCV2WpWbc" version="21.3.7" type="device">
  <diagram name="Page-1" id="lpUWkCVBu4SeMIq9ocWI">
    <mxGraphModel dx="989" dy="582" grid="1" gridSize="10" guides="1" tooltips="1" connect="1" arrows="1" fold="1" page="1" pageScale="1" pageWidth="850" pageHeight="1100" math="0" shadow="0">
      <root>
        <mxCell id="0" />
        <mxCell id="1" parent="0" />
        <mxCell id="OArM8RL9qnVI0bMVob3_-3" value="" style="rounded=0;whiteSpace=wrap;html=1;" vertex="1" parent="1">
          <mxGeometry x="10" y="10" width="830" height="580" as="geometry" />
        </mxCell>
        <mxCell id="OArM8RL9qnVI0bMVob3_-4" value="&lt;font style=&quot;font-size: 17px;&quot;&gt;&lt;b&gt;&amp;nbsp; &amp;nbsp;T&amp;nbsp; &amp;nbsp; &amp;nbsp; Tick-a-Boo Time Traking&lt;/b&gt;&lt;/font&gt;" style="rounded=0;whiteSpace=wrap;html=1;align=left;" vertex="1" parent="1">
          <mxGeometry x="10" y="10" width="830" height="40" as="geometry" />
        </mxCell>
        <mxCell id="OArM8RL9qnVI0bMVob3_-5" value="&lt;font style=&quot;font-size: 18px;&quot;&gt;X&lt;/font&gt;" style="rounded=0;whiteSpace=wrap;html=1;" vertex="1" parent="1">
          <mxGeometry x="800" y="10" width="40" height="40" as="geometry" />
        </mxCell>
        <mxCell id="OArM8RL9qnVI0bMVob3_-6" value="&lt;font style=&quot;font-size: 16px;&quot;&gt;&lt;b&gt;_&lt;/b&gt;&lt;/font&gt;" style="rounded=0;whiteSpace=wrap;html=1;" vertex="1" parent="1">
          <mxGeometry x="720" y="10" width="40" height="40" as="geometry" />
        </mxCell>
        <mxCell id="OArM8RL9qnVI0bMVob3_-7" value="" style="rounded=0;whiteSpace=wrap;html=1;" vertex="1" parent="1">
          <mxGeometry x="760" y="10" width="40" height="40" as="geometry" />
        </mxCell>
        <mxCell id="OArM8RL9qnVI0bMVob3_-8" value="" style="rounded=0;whiteSpace=wrap;html=1;" vertex="1" parent="1">
          <mxGeometry x="10" y="10" width="40" height="40" as="geometry" />
        </mxCell>
        <mxCell id="OArM8RL9qnVI0bMVob3_-9" value="" style="rounded=0;whiteSpace=wrap;html=1;" vertex="1" parent="1">
          <mxGeometry x="770" y="20" width="20" height="20" as="geometry" />
        </mxCell>
        <mxCell id="OArM8RL9qnVI0bMVob3_-10" value="My Trackers" style="shape=table;startSize=30;container=1;collapsible=0;childLayout=tableLayout;strokeColor=default;fontSize=16;" vertex="1" parent="1">
          <mxGeometry x="20" y="348" width="810" height="234" as="geometry" />
        </mxCell>
        <mxCell id="OArM8RL9qnVI0bMVob3_-11" value="" style="shape=tableRow;horizontal=0;startSize=0;swimlaneHead=0;swimlaneBody=0;strokeColor=inherit;top=0;left=0;bottom=0;right=0;collapsible=0;dropTarget=0;fillColor=none;points=[[0,0.5],[1,0.5]];portConstraint=eastwest;fontSize=16;" vertex="1" parent="OArM8RL9qnVI0bMVob3_-10">
          <mxGeometry y="30" width="810" height="28" as="geometry" />
        </mxCell>
        <mxCell id="OArM8RL9qnVI0bMVob3_-72" value="Actions" style="shape=partialRectangle;html=1;whiteSpace=wrap;connectable=0;strokeColor=inherit;overflow=hidden;fillColor=none;top=0;left=0;bottom=0;right=0;pointerEvents=1;fontSize=16;" vertex="1" parent="OArM8RL9qnVI0bMVob3_-11">
          <mxGeometry width="100" height="28" as="geometry">
            <mxRectangle width="100" height="28" as="alternateBounds" />
          </mxGeometry>
        </mxCell>
        <mxCell id="OArM8RL9qnVI0bMVob3_-12" value="Name" style="shape=partialRectangle;html=1;whiteSpace=wrap;connectable=0;strokeColor=inherit;overflow=hidden;fillColor=none;top=0;left=0;bottom=0;right=0;pointerEvents=1;fontSize=16;" vertex="1" parent="OArM8RL9qnVI0bMVob3_-11">
          <mxGeometry x="100" width="370" height="28" as="geometry">
            <mxRectangle width="370" height="28" as="alternateBounds" />
          </mxGeometry>
        </mxCell>
        <mxCell id="OArM8RL9qnVI0bMVob3_-13" value="Group" style="shape=partialRectangle;html=1;whiteSpace=wrap;connectable=0;strokeColor=inherit;overflow=hidden;fillColor=none;top=0;left=0;bottom=0;right=0;pointerEvents=1;fontSize=16;" vertex="1" parent="OArM8RL9qnVI0bMVob3_-11">
          <mxGeometry x="470" width="93" height="28" as="geometry">
            <mxRectangle width="93" height="28" as="alternateBounds" />
          </mxGeometry>
        </mxCell>
        <mxCell id="OArM8RL9qnVI0bMVob3_-14" value="Priority" style="shape=partialRectangle;html=1;whiteSpace=wrap;connectable=0;strokeColor=inherit;overflow=hidden;fillColor=none;top=0;left=0;bottom=0;right=0;pointerEvents=1;fontSize=16;" vertex="1" parent="OArM8RL9qnVI0bMVob3_-11">
          <mxGeometry x="563" width="97" height="28" as="geometry">
            <mxRectangle width="97" height="28" as="alternateBounds" />
          </mxGeometry>
        </mxCell>
        <mxCell id="OArM8RL9qnVI0bMVob3_-43" value="Duration" style="shape=partialRectangle;html=1;whiteSpace=wrap;connectable=0;strokeColor=inherit;overflow=hidden;fillColor=none;top=0;left=0;bottom=0;right=0;pointerEvents=1;fontSize=16;" vertex="1" parent="OArM8RL9qnVI0bMVob3_-11">
          <mxGeometry x="660" width="150" height="28" as="geometry">
            <mxRectangle width="150" height="28" as="alternateBounds" />
          </mxGeometry>
        </mxCell>
        <mxCell id="OArM8RL9qnVI0bMVob3_-15" value="" style="shape=tableRow;horizontal=0;startSize=0;swimlaneHead=0;swimlaneBody=0;strokeColor=inherit;top=0;left=0;bottom=0;right=0;collapsible=0;dropTarget=0;fillColor=none;points=[[0,0.5],[1,0.5]];portConstraint=eastwest;fontSize=16;" vertex="1" parent="OArM8RL9qnVI0bMVob3_-10">
          <mxGeometry y="58" width="810" height="34" as="geometry" />
        </mxCell>
        <mxCell id="OArM8RL9qnVI0bMVob3_-73" style="shape=partialRectangle;html=1;whiteSpace=wrap;connectable=0;strokeColor=inherit;overflow=hidden;fillColor=none;top=0;left=0;bottom=0;right=0;pointerEvents=1;fontSize=16;" vertex="1" parent="OArM8RL9qnVI0bMVob3_-15">
          <mxGeometry width="100" height="34" as="geometry">
            <mxRectangle width="100" height="34" as="alternateBounds" />
          </mxGeometry>
        </mxCell>
        <mxCell id="OArM8RL9qnVI0bMVob3_-16" value="" style="shape=partialRectangle;html=1;whiteSpace=wrap;connectable=0;strokeColor=inherit;overflow=hidden;fillColor=none;top=0;left=0;bottom=0;right=0;pointerEvents=1;fontSize=16;" vertex="1" parent="OArM8RL9qnVI0bMVob3_-15">
          <mxGeometry x="100" width="370" height="34" as="geometry">
            <mxRectangle width="370" height="34" as="alternateBounds" />
          </mxGeometry>
        </mxCell>
        <mxCell id="OArM8RL9qnVI0bMVob3_-17" value="" style="shape=partialRectangle;html=1;whiteSpace=wrap;connectable=0;strokeColor=inherit;overflow=hidden;fillColor=none;top=0;left=0;bottom=0;right=0;pointerEvents=1;fontSize=16;" vertex="1" parent="OArM8RL9qnVI0bMVob3_-15">
          <mxGeometry x="470" width="93" height="34" as="geometry">
            <mxRectangle width="93" height="34" as="alternateBounds" />
          </mxGeometry>
        </mxCell>
        <mxCell id="OArM8RL9qnVI0bMVob3_-18" value="" style="shape=partialRectangle;html=1;whiteSpace=wrap;connectable=0;strokeColor=inherit;overflow=hidden;fillColor=none;top=0;left=0;bottom=0;right=0;pointerEvents=1;fontSize=16;" vertex="1" parent="OArM8RL9qnVI0bMVob3_-15">
          <mxGeometry x="563" width="97" height="34" as="geometry">
            <mxRectangle width="97" height="34" as="alternateBounds" />
          </mxGeometry>
        </mxCell>
        <mxCell id="OArM8RL9qnVI0bMVob3_-44" style="shape=partialRectangle;html=1;whiteSpace=wrap;connectable=0;strokeColor=inherit;overflow=hidden;fillColor=none;top=0;left=0;bottom=0;right=0;pointerEvents=1;fontSize=16;" vertex="1" parent="OArM8RL9qnVI0bMVob3_-15">
          <mxGeometry x="660" width="150" height="34" as="geometry">
            <mxRectangle width="150" height="34" as="alternateBounds" />
          </mxGeometry>
        </mxCell>
        <mxCell id="OArM8RL9qnVI0bMVob3_-19" value="" style="shape=tableRow;horizontal=0;startSize=0;swimlaneHead=0;swimlaneBody=0;strokeColor=inherit;top=0;left=0;bottom=0;right=0;collapsible=0;dropTarget=0;fillColor=none;points=[[0,0.5],[1,0.5]];portConstraint=eastwest;fontSize=16;" vertex="1" parent="OArM8RL9qnVI0bMVob3_-10">
          <mxGeometry y="92" width="810" height="28" as="geometry" />
        </mxCell>
        <mxCell id="OArM8RL9qnVI0bMVob3_-74" style="shape=partialRectangle;html=1;whiteSpace=wrap;connectable=0;strokeColor=inherit;overflow=hidden;fillColor=none;top=0;left=0;bottom=0;right=0;pointerEvents=1;fontSize=16;" vertex="1" parent="OArM8RL9qnVI0bMVob3_-19">
          <mxGeometry width="100" height="28" as="geometry">
            <mxRectangle width="100" height="28" as="alternateBounds" />
          </mxGeometry>
        </mxCell>
        <mxCell id="OArM8RL9qnVI0bMVob3_-20" value="" style="shape=partialRectangle;html=1;whiteSpace=wrap;connectable=0;strokeColor=inherit;overflow=hidden;fillColor=none;top=0;left=0;bottom=0;right=0;pointerEvents=1;fontSize=16;" vertex="1" parent="OArM8RL9qnVI0bMVob3_-19">
          <mxGeometry x="100" width="370" height="28" as="geometry">
            <mxRectangle width="370" height="28" as="alternateBounds" />
          </mxGeometry>
        </mxCell>
        <mxCell id="OArM8RL9qnVI0bMVob3_-21" value="" style="shape=partialRectangle;html=1;whiteSpace=wrap;connectable=0;strokeColor=inherit;overflow=hidden;fillColor=none;top=0;left=0;bottom=0;right=0;pointerEvents=1;fontSize=16;" vertex="1" parent="OArM8RL9qnVI0bMVob3_-19">
          <mxGeometry x="470" width="93" height="28" as="geometry">
            <mxRectangle width="93" height="28" as="alternateBounds" />
          </mxGeometry>
        </mxCell>
        <mxCell id="OArM8RL9qnVI0bMVob3_-22" value="" style="shape=partialRectangle;html=1;whiteSpace=wrap;connectable=0;strokeColor=inherit;overflow=hidden;fillColor=none;top=0;left=0;bottom=0;right=0;pointerEvents=1;fontSize=16;" vertex="1" parent="OArM8RL9qnVI0bMVob3_-19">
          <mxGeometry x="563" width="97" height="28" as="geometry">
            <mxRectangle width="97" height="28" as="alternateBounds" />
          </mxGeometry>
        </mxCell>
        <mxCell id="OArM8RL9qnVI0bMVob3_-45" style="shape=partialRectangle;html=1;whiteSpace=wrap;connectable=0;strokeColor=inherit;overflow=hidden;fillColor=none;top=0;left=0;bottom=0;right=0;pointerEvents=1;fontSize=16;" vertex="1" parent="OArM8RL9qnVI0bMVob3_-19">
          <mxGeometry x="660" width="150" height="28" as="geometry">
            <mxRectangle width="150" height="28" as="alternateBounds" />
          </mxGeometry>
        </mxCell>
        <mxCell id="OArM8RL9qnVI0bMVob3_-23" style="shape=tableRow;horizontal=0;startSize=0;swimlaneHead=0;swimlaneBody=0;strokeColor=inherit;top=0;left=0;bottom=0;right=0;collapsible=0;dropTarget=0;fillColor=none;points=[[0,0.5],[1,0.5]];portConstraint=eastwest;fontSize=16;" vertex="1" parent="OArM8RL9qnVI0bMVob3_-10">
          <mxGeometry y="120" width="810" height="28" as="geometry" />
        </mxCell>
        <mxCell id="OArM8RL9qnVI0bMVob3_-75" style="shape=partialRectangle;html=1;whiteSpace=wrap;connectable=0;strokeColor=inherit;overflow=hidden;fillColor=none;top=0;left=0;bottom=0;right=0;pointerEvents=1;fontSize=16;" vertex="1" parent="OArM8RL9qnVI0bMVob3_-23">
          <mxGeometry width="100" height="28" as="geometry">
            <mxRectangle width="100" height="28" as="alternateBounds" />
          </mxGeometry>
        </mxCell>
        <mxCell id="OArM8RL9qnVI0bMVob3_-24" style="shape=partialRectangle;html=1;whiteSpace=wrap;connectable=0;strokeColor=inherit;overflow=hidden;fillColor=none;top=0;left=0;bottom=0;right=0;pointerEvents=1;fontSize=16;" vertex="1" parent="OArM8RL9qnVI0bMVob3_-23">
          <mxGeometry x="100" width="370" height="28" as="geometry">
            <mxRectangle width="370" height="28" as="alternateBounds" />
          </mxGeometry>
        </mxCell>
        <mxCell id="OArM8RL9qnVI0bMVob3_-25" style="shape=partialRectangle;html=1;whiteSpace=wrap;connectable=0;strokeColor=inherit;overflow=hidden;fillColor=none;top=0;left=0;bottom=0;right=0;pointerEvents=1;fontSize=16;" vertex="1" parent="OArM8RL9qnVI0bMVob3_-23">
          <mxGeometry x="470" width="93" height="28" as="geometry">
            <mxRectangle width="93" height="28" as="alternateBounds" />
          </mxGeometry>
        </mxCell>
        <mxCell id="OArM8RL9qnVI0bMVob3_-26" style="shape=partialRectangle;html=1;whiteSpace=wrap;connectable=0;strokeColor=inherit;overflow=hidden;fillColor=none;top=0;left=0;bottom=0;right=0;pointerEvents=1;fontSize=16;" vertex="1" parent="OArM8RL9qnVI0bMVob3_-23">
          <mxGeometry x="563" width="97" height="28" as="geometry">
            <mxRectangle width="97" height="28" as="alternateBounds" />
          </mxGeometry>
        </mxCell>
        <mxCell id="OArM8RL9qnVI0bMVob3_-46" style="shape=partialRectangle;html=1;whiteSpace=wrap;connectable=0;strokeColor=inherit;overflow=hidden;fillColor=none;top=0;left=0;bottom=0;right=0;pointerEvents=1;fontSize=16;" vertex="1" parent="OArM8RL9qnVI0bMVob3_-23">
          <mxGeometry x="660" width="150" height="28" as="geometry">
            <mxRectangle width="150" height="28" as="alternateBounds" />
          </mxGeometry>
        </mxCell>
        <mxCell id="OArM8RL9qnVI0bMVob3_-39" style="shape=tableRow;horizontal=0;startSize=0;swimlaneHead=0;swimlaneBody=0;strokeColor=inherit;top=0;left=0;bottom=0;right=0;collapsible=0;dropTarget=0;fillColor=none;points=[[0,0.5],[1,0.5]];portConstraint=eastwest;fontSize=16;" vertex="1" parent="OArM8RL9qnVI0bMVob3_-10">
          <mxGeometry y="148" width="810" height="28" as="geometry" />
        </mxCell>
        <mxCell id="OArM8RL9qnVI0bMVob3_-76" style="shape=partialRectangle;html=1;whiteSpace=wrap;connectable=0;strokeColor=inherit;overflow=hidden;fillColor=none;top=0;left=0;bottom=0;right=0;pointerEvents=1;fontSize=16;" vertex="1" parent="OArM8RL9qnVI0bMVob3_-39">
          <mxGeometry width="100" height="28" as="geometry">
            <mxRectangle width="100" height="28" as="alternateBounds" />
          </mxGeometry>
        </mxCell>
        <mxCell id="OArM8RL9qnVI0bMVob3_-40" style="shape=partialRectangle;html=1;whiteSpace=wrap;connectable=0;strokeColor=inherit;overflow=hidden;fillColor=none;top=0;left=0;bottom=0;right=0;pointerEvents=1;fontSize=16;" vertex="1" parent="OArM8RL9qnVI0bMVob3_-39">
          <mxGeometry x="100" width="370" height="28" as="geometry">
            <mxRectangle width="370" height="28" as="alternateBounds" />
          </mxGeometry>
        </mxCell>
        <mxCell id="OArM8RL9qnVI0bMVob3_-41" style="shape=partialRectangle;html=1;whiteSpace=wrap;connectable=0;strokeColor=inherit;overflow=hidden;fillColor=none;top=0;left=0;bottom=0;right=0;pointerEvents=1;fontSize=16;" vertex="1" parent="OArM8RL9qnVI0bMVob3_-39">
          <mxGeometry x="470" width="93" height="28" as="geometry">
            <mxRectangle width="93" height="28" as="alternateBounds" />
          </mxGeometry>
        </mxCell>
        <mxCell id="OArM8RL9qnVI0bMVob3_-42" style="shape=partialRectangle;html=1;whiteSpace=wrap;connectable=0;strokeColor=inherit;overflow=hidden;fillColor=none;top=0;left=0;bottom=0;right=0;pointerEvents=1;fontSize=16;" vertex="1" parent="OArM8RL9qnVI0bMVob3_-39">
          <mxGeometry x="563" width="97" height="28" as="geometry">
            <mxRectangle width="97" height="28" as="alternateBounds" />
          </mxGeometry>
        </mxCell>
        <mxCell id="OArM8RL9qnVI0bMVob3_-47" style="shape=partialRectangle;html=1;whiteSpace=wrap;connectable=0;strokeColor=inherit;overflow=hidden;fillColor=none;top=0;left=0;bottom=0;right=0;pointerEvents=1;fontSize=16;" vertex="1" parent="OArM8RL9qnVI0bMVob3_-39">
          <mxGeometry x="660" width="150" height="28" as="geometry">
            <mxRectangle width="150" height="28" as="alternateBounds" />
          </mxGeometry>
        </mxCell>
        <mxCell id="OArM8RL9qnVI0bMVob3_-35" style="shape=tableRow;horizontal=0;startSize=0;swimlaneHead=0;swimlaneBody=0;strokeColor=inherit;top=0;left=0;bottom=0;right=0;collapsible=0;dropTarget=0;fillColor=none;points=[[0,0.5],[1,0.5]];portConstraint=eastwest;fontSize=16;" vertex="1" parent="OArM8RL9qnVI0bMVob3_-10">
          <mxGeometry y="176" width="810" height="30" as="geometry" />
        </mxCell>
        <mxCell id="OArM8RL9qnVI0bMVob3_-77" style="shape=partialRectangle;html=1;whiteSpace=wrap;connectable=0;strokeColor=inherit;overflow=hidden;fillColor=none;top=0;left=0;bottom=0;right=0;pointerEvents=1;fontSize=16;" vertex="1" parent="OArM8RL9qnVI0bMVob3_-35">
          <mxGeometry width="100" height="30" as="geometry">
            <mxRectangle width="100" height="30" as="alternateBounds" />
          </mxGeometry>
        </mxCell>
        <mxCell id="OArM8RL9qnVI0bMVob3_-36" style="shape=partialRectangle;html=1;whiteSpace=wrap;connectable=0;strokeColor=inherit;overflow=hidden;fillColor=none;top=0;left=0;bottom=0;right=0;pointerEvents=1;fontSize=16;" vertex="1" parent="OArM8RL9qnVI0bMVob3_-35">
          <mxGeometry x="100" width="370" height="30" as="geometry">
            <mxRectangle width="370" height="30" as="alternateBounds" />
          </mxGeometry>
        </mxCell>
        <mxCell id="OArM8RL9qnVI0bMVob3_-37" style="shape=partialRectangle;html=1;whiteSpace=wrap;connectable=0;strokeColor=inherit;overflow=hidden;fillColor=none;top=0;left=0;bottom=0;right=0;pointerEvents=1;fontSize=16;" vertex="1" parent="OArM8RL9qnVI0bMVob3_-35">
          <mxGeometry x="470" width="93" height="30" as="geometry">
            <mxRectangle width="93" height="30" as="alternateBounds" />
          </mxGeometry>
        </mxCell>
        <mxCell id="OArM8RL9qnVI0bMVob3_-38" style="shape=partialRectangle;html=1;whiteSpace=wrap;connectable=0;strokeColor=inherit;overflow=hidden;fillColor=none;top=0;left=0;bottom=0;right=0;pointerEvents=1;fontSize=16;" vertex="1" parent="OArM8RL9qnVI0bMVob3_-35">
          <mxGeometry x="563" width="97" height="30" as="geometry">
            <mxRectangle width="97" height="30" as="alternateBounds" />
          </mxGeometry>
        </mxCell>
        <mxCell id="OArM8RL9qnVI0bMVob3_-48" style="shape=partialRectangle;html=1;whiteSpace=wrap;connectable=0;strokeColor=inherit;overflow=hidden;fillColor=none;top=0;left=0;bottom=0;right=0;pointerEvents=1;fontSize=16;" vertex="1" parent="OArM8RL9qnVI0bMVob3_-35">
          <mxGeometry x="660" width="150" height="30" as="geometry">
            <mxRectangle width="150" height="30" as="alternateBounds" />
          </mxGeometry>
        </mxCell>
        <mxCell id="OArM8RL9qnVI0bMVob3_-31" style="shape=tableRow;horizontal=0;startSize=0;swimlaneHead=0;swimlaneBody=0;strokeColor=inherit;top=0;left=0;bottom=0;right=0;collapsible=0;dropTarget=0;fillColor=none;points=[[0,0.5],[1,0.5]];portConstraint=eastwest;fontSize=16;" vertex="1" parent="OArM8RL9qnVI0bMVob3_-10">
          <mxGeometry y="206" width="810" height="28" as="geometry" />
        </mxCell>
        <mxCell id="OArM8RL9qnVI0bMVob3_-78" style="shape=partialRectangle;html=1;whiteSpace=wrap;connectable=0;strokeColor=inherit;overflow=hidden;fillColor=none;top=0;left=0;bottom=0;right=0;pointerEvents=1;fontSize=16;" vertex="1" parent="OArM8RL9qnVI0bMVob3_-31">
          <mxGeometry width="100" height="28" as="geometry">
            <mxRectangle width="100" height="28" as="alternateBounds" />
          </mxGeometry>
        </mxCell>
        <mxCell id="OArM8RL9qnVI0bMVob3_-32" style="shape=partialRectangle;html=1;whiteSpace=wrap;connectable=0;strokeColor=inherit;overflow=hidden;fillColor=none;top=0;left=0;bottom=0;right=0;pointerEvents=1;fontSize=16;" vertex="1" parent="OArM8RL9qnVI0bMVob3_-31">
          <mxGeometry x="100" width="370" height="28" as="geometry">
            <mxRectangle width="370" height="28" as="alternateBounds" />
          </mxGeometry>
        </mxCell>
        <mxCell id="OArM8RL9qnVI0bMVob3_-33" style="shape=partialRectangle;html=1;whiteSpace=wrap;connectable=0;strokeColor=inherit;overflow=hidden;fillColor=none;top=0;left=0;bottom=0;right=0;pointerEvents=1;fontSize=16;" vertex="1" parent="OArM8RL9qnVI0bMVob3_-31">
          <mxGeometry x="470" width="93" height="28" as="geometry">
            <mxRectangle width="93" height="28" as="alternateBounds" />
          </mxGeometry>
        </mxCell>
        <mxCell id="OArM8RL9qnVI0bMVob3_-34" style="shape=partialRectangle;html=1;whiteSpace=wrap;connectable=0;strokeColor=inherit;overflow=hidden;fillColor=none;top=0;left=0;bottom=0;right=0;pointerEvents=1;fontSize=16;" vertex="1" parent="OArM8RL9qnVI0bMVob3_-31">
          <mxGeometry x="563" width="97" height="28" as="geometry">
            <mxRectangle width="97" height="28" as="alternateBounds" />
          </mxGeometry>
        </mxCell>
        <mxCell id="OArM8RL9qnVI0bMVob3_-49" style="shape=partialRectangle;html=1;whiteSpace=wrap;connectable=0;strokeColor=inherit;overflow=hidden;fillColor=none;top=0;left=0;bottom=0;right=0;pointerEvents=1;fontSize=16;" vertex="1" parent="OArM8RL9qnVI0bMVob3_-31">
          <mxGeometry x="660" width="150" height="28" as="geometry">
            <mxRectangle width="150" height="28" as="alternateBounds" />
          </mxGeometry>
        </mxCell>
        <mxCell id="OArM8RL9qnVI0bMVob3_-27" value="Today is Mon Jan 01, 1970" style="text;html=1;strokeColor=none;fillColor=none;align=left;verticalAlign=middle;whiteSpace=wrap;rounded=0;fontSize=17;" vertex="1" parent="1">
          <mxGeometry x="30" y="130" width="280" height="30" as="geometry" />
        </mxCell>
        <mxCell id="OArM8RL9qnVI0bMVob3_-50" value="&lt;font style=&quot;font-size: 14px;&quot;&gt;&amp;nbsp; &amp;nbsp;FIle&amp;nbsp; &amp;nbsp;Edit&amp;nbsp; &amp;nbsp;View&amp;nbsp; &amp;nbsp;Motivation&amp;nbsp; &amp;nbsp;Help&lt;/font&gt;" style="rounded=0;whiteSpace=wrap;html=1;align=left;" vertex="1" parent="1">
          <mxGeometry x="10" y="50" width="830" height="30" as="geometry" />
        </mxCell>
        <mxCell id="OArM8RL9qnVI0bMVob3_-53" value="" style="endArrow=none;html=1;rounded=0;anchorPointDirection=0;startFill=0;endFill=0;noJump=1;comic=0;snapToPoint=1;entryX=0.999;entryY=0.173;entryDx=0;entryDy=0;entryPerimeter=0;exitX=0.169;exitY=0.173;exitDx=0;exitDy=0;exitPerimeter=0;" edge="1" parent="1" source="OArM8RL9qnVI0bMVob3_-3" target="OArM8RL9qnVI0bMVob3_-3">
          <mxGeometry width="50" height="50" relative="1" as="geometry">
            <mxPoint x="320" y="520" as="sourcePoint" />
            <mxPoint x="370" y="470" as="targetPoint" />
          </mxGeometry>
        </mxCell>
        <mxCell id="OArM8RL9qnVI0bMVob3_-54" value="" style="endArrow=none;html=1;rounded=0;anchorPointDirection=0;startFill=0;endFill=0;noJump=1;comic=0;snapToPoint=1;exitX=0.169;exitY=1.027;exitDx=0;exitDy=0;exitPerimeter=0;" edge="1" parent="1" source="OArM8RL9qnVI0bMVob3_-50">
          <mxGeometry width="50" height="50" relative="1" as="geometry">
            <mxPoint x="101" y="430" as="sourcePoint" />
            <mxPoint x="150" y="110" as="targetPoint" />
          </mxGeometry>
        </mxCell>
        <mxCell id="OArM8RL9qnVI0bMVob3_-55" value="" style="endArrow=none;html=1;rounded=0;anchorPointDirection=0;startFill=0;endFill=0;noJump=1;comic=0;snapToPoint=1;exitX=0.169;exitY=1.027;exitDx=0;exitDy=0;exitPerimeter=0;" edge="1" parent="1">
          <mxGeometry width="50" height="50" relative="1" as="geometry">
            <mxPoint x="280" y="80" as="sourcePoint" />
            <mxPoint x="280" y="109" as="targetPoint" />
          </mxGeometry>
        </mxCell>
        <mxCell id="OArM8RL9qnVI0bMVob3_-56" value="&lt;font style=&quot;font-size: 14px;&quot;&gt;Trackers&lt;/font&gt;" style="text;html=1;strokeColor=none;fillColor=none;align=center;verticalAlign=middle;whiteSpace=wrap;rounded=0;" vertex="1" parent="1">
          <mxGeometry x="10" y="80" width="140" height="30" as="geometry" />
        </mxCell>
        <mxCell id="OArM8RL9qnVI0bMVob3_-57" value="&lt;font style=&quot;font-size: 14px;&quot;&gt;Agenda&lt;/font&gt;" style="text;html=1;strokeColor=none;fillColor=none;align=center;verticalAlign=middle;whiteSpace=wrap;rounded=0;" vertex="1" parent="1">
          <mxGeometry x="150" y="80" width="130" height="30" as="geometry" />
        </mxCell>
        <mxCell id="OArM8RL9qnVI0bMVob3_-65" value="" style="endArrow=none;html=1;rounded=0;anchorPointDirection=0;startFill=0;endFill=0;noJump=1;comic=0;snapToPoint=1;exitX=0.169;exitY=1.027;exitDx=0;exitDy=0;exitPerimeter=0;" edge="1" parent="1">
          <mxGeometry width="50" height="50" relative="1" as="geometry">
            <mxPoint x="390" y="80" as="sourcePoint" />
            <mxPoint x="390" y="109" as="targetPoint" />
          </mxGeometry>
        </mxCell>
        <mxCell id="OArM8RL9qnVI0bMVob3_-67" value="&lt;font style=&quot;font-size: 14px;&quot;&gt;Stats&lt;/font&gt;" style="text;html=1;strokeColor=none;fillColor=none;align=center;verticalAlign=middle;whiteSpace=wrap;rounded=0;" vertex="1" parent="1">
          <mxGeometry x="280" y="80" width="110" height="30" as="geometry" />
        </mxCell>
        <mxCell id="OArM8RL9qnVI0bMVob3_-68" value="Add" style="rounded=1;whiteSpace=wrap;html=1;" vertex="1" parent="1">
          <mxGeometry x="20" y="308" width="80" height="30" as="geometry" />
        </mxCell>
        <mxCell id="OArM8RL9qnVI0bMVob3_-69" value="Delete" style="rounded=1;whiteSpace=wrap;html=1;" vertex="1" parent="1">
          <mxGeometry x="110" y="308" width="80" height="30" as="geometry" />
        </mxCell>
        <mxCell id="OArM8RL9qnVI0bMVob3_-70" value="Edit" style="rounded=1;whiteSpace=wrap;html=1;" vertex="1" parent="1">
          <mxGeometry x="200" y="308" width="80" height="30" as="geometry" />
        </mxCell>
        <mxCell id="OArM8RL9qnVI0bMVob3_-71" value="Pick" style="rounded=1;whiteSpace=wrap;html=1;" vertex="1" parent="1">
          <mxGeometry x="290" y="308" width="80" height="30" as="geometry" />
        </mxCell>
        <mxCell id="OArM8RL9qnVI0bMVob3_-79" value="Start" style="rounded=1;whiteSpace=wrap;html=1;" vertex="1" parent="1">
          <mxGeometry x="380" y="308" width="80" height="30" as="geometry" />
        </mxCell>
        <mxCell id="OArM8RL9qnVI0bMVob3_-80" value="Enable" style="rounded=1;whiteSpace=wrap;html=1;" vertex="1" parent="1">
          <mxGeometry x="470" y="308" width="80" height="30" as="geometry" />
        </mxCell>
        <mxCell id="OArM8RL9qnVI0bMVob3_-82" value="&lt;h1&gt;Quote of the day&lt;/h1&gt;&lt;p style=&quot;&quot;&gt;&lt;font style=&quot;font-size: 14px;&quot;&gt;Lorem ipsum dolor sit amet, consectetur adipisicing elit, sed do eiusmod tempor incididunt ut labore et dolore magna aliqua.&lt;/font&gt;&lt;/p&gt;" style="whiteSpace=wrap;html=1;shape=mxgraph.basic.roundRectCallout;dx=30;dy=15;size=5;boundedLbl=1;align=left;" vertex="1" parent="1">
          <mxGeometry x="270" y="130" width="540" height="120" as="geometry" />
        </mxCell>
        <mxCell id="OArM8RL9qnVI0bMVob3_-83" value="" style="verticalLabelPosition=bottom;verticalAlign=top;html=1;shape=mxgraph.basic.smiley" vertex="1" parent="1">
          <mxGeometry x="90" y="180" width="100" height="100" as="geometry" />
        </mxCell>
        <mxCell id="OArM8RL9qnVI0bMVob3_-84" value="" style="endArrow=none;html=1;rounded=0;anchorPointDirection=0;startFill=0;endFill=0;noJump=1;comic=0;snapToPoint=1;exitX=0.169;exitY=1.027;exitDx=0;exitDy=0;exitPerimeter=0;" edge="1" parent="1">
          <mxGeometry width="50" height="50" relative="1" as="geometry">
            <mxPoint x="509.76" y="80" as="sourcePoint" />
            <mxPoint x="509.76" y="109" as="targetPoint" />
          </mxGeometry>
        </mxCell>
        <mxCell id="OArM8RL9qnVI0bMVob3_-85" value="&lt;font style=&quot;font-size: 14px;&quot;&gt;Motivation&lt;/font&gt;" style="text;html=1;strokeColor=none;fillColor=none;align=center;verticalAlign=middle;whiteSpace=wrap;rounded=0;" vertex="1" parent="1">
          <mxGeometry x="390" y="80" width="110" height="30" as="geometry" />
        </mxCell>
      </root>
    </mxGraphModel>
  </diagram>
</mxfile>
